<?xml version="1.0" standalone="no"?><!DOCTYPE svg PUBLIC "-//W3C//DTD SVG 1.1//EN" "http://www.w3.org/Graphics/SVG/1.1/DTD/svg11.dtd"><svg t="1503632118270" class="icon" style="" viewBox="0 0 1024 1024" version="1.1" xmlns="http://www.w3.org/2000/svg" p-id="13825" xmlns:xlink="http://www.w3.org/1999/xlink" width="200" height="200"><defs><style type="text/css"></style></defs><path d="M449.609021 629.335359 449.609021 629.335359c-34.71157-10.875698-54.215786-48.173163-43.343157-82.884732l74.256214-237.056044c10.871605-34.71157 48.169069-54.215786 82.880639-43.343157l0 0c34.715663 10.875698 54.219879 48.173163 43.343157 82.884732l-74.252121 237.056044C521.617032 620.703771 484.320591 640.207987 449.609021 629.335359L449.609021 629.335359zM449.609021 629.335359" p-id="13826"></path><path d="M715.832362 364.197746l-0.607844-1.51654c-6.40999-15.963577-20.164249-23.806195-30.571273-17.421788l-58.006112 35.57831L586.637907 508.156462l121.926934-103.323227C718.971865 398.448828 722.242352 380.165416 715.832362 364.197746L715.832362 364.197746zM715.832362 364.197746" p-id="13827"></path><path d="M306.153772 740.011041l-0.38988-1.622964c-4.098341-17.083074 6.5246-34.415834 23.612791-38.515199l226.932476-82.541925c17.083074-4.099365 37.07336 33.975812 41.171702 51.058886l0.388856 1.622964c4.102435 17.083074-6.523577 34.414811-23.606651 38.514175l-229.590002 55.094806C327.587943 767.721149 310.256206 757.098207 306.153772 740.011041L306.153772 740.011041zM306.153772 740.011041" p-id="13828"></path><path d="M385.573589 783.598768l-44.835138 111.837134c-7.179516 12.840446-0.207731 27.752064 15.485693 33.143864l1.49198 0.51063c15.697517 5.387707 34.414811-0.705058 41.594327-13.541411L483.383242 765.210979 385.573589 783.598768 385.573589 783.598768zM385.573589 783.598768" p-id="13829"></path><path d="M410.354995 543.632441l15.046694-19.149129c16.673751-21.228487 46.124504-26.177196 65.438385-11.002588l105.554034 113.417119c18.980283 22.466688 21.131273 40.554648 4.453429 61.780065l-2.310625 2.792603c-16.677844 21.228487-46.124504 26.176173-65.442478 11.001565L415.159418 609.813746C395.841444 594.637092 393.682267 564.856835 410.354995 543.632441L410.354995 543.632441zM410.354995 543.632441" p-id="13830"></path><path d="M557.922912 280.945647l6.139837 14.97097c6.807033 16.597003-5.641487 37.562501-27.659967 46.593178l-143.252635 41.535999c-27.317159 6.942109-42.097794 3.739161-48.904827-12.853749l-0.832971-2.264577c-6.807033-16.59291 5.641487-37.559431 27.659967-46.593178l134.438898-55.141878C527.528672 258.162758 551.114856 264.351714 557.922912 280.945647L557.922912 280.945647zM557.922912 280.945647" p-id="13831"></path><path d="M477.724359 172.234713c0 20.75572 8.5487 41.387619 23.222911 56.06183 14.678304 14.679327 35.307134 23.227004 56.065923 23.227004s41.387619-8.547677 56.065923-23.227004c14.674211-14.674211 23.222911-35.30611 23.222911-56.06183 0-20.75879-8.5487-41.387619-23.222911-56.066947-14.678304-14.678304-35.307134-23.222911-56.065923-23.222911s-41.387619 8.544607-56.065923 23.222911C486.273059 130.847094 477.724359 151.475923 477.724359 172.234713L477.724359 172.234713zM477.724359 172.234713" p-id="13832"></path><path d="M471.090265 519.712659l-1.334391 0.61296c-14.044878 6.40999-29.653367 2.636037-34.681894-8.387018l-90.548272-140.561339c-5.03262-11.025101 25.27157-32.856315 39.316447-39.266305l1.335415-0.61296c14.040784-6.408967 29.649274-2.636037 34.68087 8.387018l67.623144 148.133805C492.509087 499.03778 485.136166 513.302669 471.090265 519.712659L471.090265 519.712659zM471.090265 519.712659" p-id="13833"></path><path d="M512 4.375657c-280.353153 0-507.624343 227.27119-507.624343 507.624343s227.27119 507.624343 507.624343 507.624343 507.624343-227.27119 507.624343-507.624343S792.353153 4.375657 512 4.375657zM512 970.054367c-252.976642 0-458.054367-205.077725-458.054367-458.054367S259.023358 53.945633 512 53.945633s458.054367 205.077725 458.054367 458.054367S764.976642 970.054367 512 970.054367z" p-id="13834"></path></svg>