<?xml version="1.0" standalone="no"?><!DOCTYPE svg PUBLIC "-//W3C//DTD SVG 1.1//EN" "http://www.w3.org/Graphics/SVG/1.1/DTD/svg11.dtd"><svg t="1503632127131" class="icon" style="" viewBox="0 0 1024 1024" version="1.1" xmlns="http://www.w3.org/2000/svg" p-id="14168" xmlns:xlink="http://www.w3.org/1999/xlink" width="200" height="200"><defs><style type="text/css"></style></defs><path d="M214.017911 802.606681l595.084099-0.305969c0 0 36.367746 1.899256 47.835385-39.685861l99.379383-323.292104c0 0 17.168712-60.498886-47.768867-60.498886 0 0-483.645582 0-617.363412 0-18.369099 0-36.367746 26.470885-36.367746 26.470885l-57.968578 364.877221C196.850222 770.172991 193.005503 802.606681 214.017911 802.606681zM151.680659 802.629193c0 0-26.800464-4.105504-26.800464-32.456203L65.579218 267.281439c0 0-1.856354 26.471908-1.856354-9.435906 0-35.906791 28.56881-30.249955 28.56881-30.249955L340.78823 227.595578c36.43324 0 30.645183 32.150234 30.645183 32.150234 0 26.471908 34.356867 30.228465 34.356867 30.228465l423.166731-1.877767c30.579689 0 26.799441 32.127721 26.799441 32.127721 0 26.471908-28.721289 28.372188-28.721289 28.372188L275.852698 348.59642c-70.702099 0-61.157331 60.47842-61.157331 60.47842L151.680659 802.629193z" p-id="14169"></path></svg>