<?xml version="1.0" standalone="no"?><!DOCTYPE svg PUBLIC "-//W3C//DTD SVG 1.1//EN" "http://www.w3.org/Graphics/SVG/1.1/DTD/svg11.dtd"><svg t="1503632111810" class="icon" style="" viewBox="0 0 1172 1024" version="1.1" xmlns="http://www.w3.org/2000/svg" p-id="13713" xmlns:xlink="http://www.w3.org/1999/xlink" width="228.90625" height="200"><defs><style type="text/css"></style></defs><path d="M1170.667 843.467c-0.267-3.2-0.134-6.534 0-9.867 0.533-22.4-7.067-42.4-21.067-60.667-22.533-29.733-52.933-51.6-85.6-71.333-61.6-37.333-129.067-64.267-199.067-85.6-27.866-8.533-63.2-25.733-63.6-51.333-0.4-22.934 3.067-43.867 18.134-62.4 37.466-46.4 61.6-101.067 76.666-160.934C909.467 288 912.8 234.267 902.667 180c-10.134-54.933-33.6-101.467-75.2-134.533-37.6-30-78.4-43.867-121.334-43.867-17.733 0-35.866 2.4-54.266 6.933-32.8 8.134-60.534 22.8-83.2 43.734 19.6 8.666 38.266 20.133 56.133 34.4C673.067 125.2 704.133 180 717.067 249.6c10.8 58.267 8.4 119.333-7.2 181.467C692 502.267 664 560.8 624.133 610.267c-4.133 5.2-7.066 11.6-7.6 25.066 4.4 3.334 13.867 8.8 30.134 13.734 82.266 25.2 150.933 54.8 209.733 90.4 30.667 18.533 69.6 44.8 98.8 83.2 21.2 27.866 31.467 58.4 30.667 90.533v4.667c0.666 8.266 0.4 16.666-1.067 25.066h118.8c-0.267 0 71.467-51.333 67.067-99.466z" p-id="13714"></path><path d="M938.267 912c0.533-22.4-7.067-42.4-21.067-60.667-22.533-29.733-52.933-51.6-85.6-71.333-61.6-37.333-129.067-64.267-199.067-85.6-27.866-8.533-63.2-25.733-63.6-51.333-0.4-22.934 3.067-43.867 18.134-62.4 37.466-46.4 61.6-101.067 76.666-160.934C677.067 366.4 680.4 312.667 670.267 258.4c-10.134-54.933-33.6-101.467-75.2-134.533-37.6-30-78.4-43.867-121.334-43.867-17.733 0-35.866 2.4-54.266 6.933-71.467 17.734-119.2 66.534-142.4 143.6C260.4 286 260.667 342.8 272 399.333c14.533 71.867 42.933 112.8 88.133 167.467 1.734 2.133 4 4.267 4.934 6.8 15.733 40.667-18.667 104.4-60.8 118.933-32.667 11.334-65.067 23.6-96.667 37.2-50.4 21.6-98.933 46.134-141.333 79.467C39.6 830.133 14 852.667 5.333 884.933 0.933 901.467 1.6 919.2 1.2 936.533c-0.133 22 8.667 41.867 26.8 56.8 12.933 10.667 42.8 28 42.8 28l147.733-0.266h652.534s71.733-51.334 67.333-99.334c-0.4-3.2-0.133-6.533-0.133-9.733z" p-id="13715"></path></svg>